<?xml version="1.0" encoding="UTF-8"?>
<svg xmlns="http://www.w3.org/2000/svg" xmlns:xlink="http://www.w3.org/1999/xlink" width="57pt" height="57pt" viewBox="0 0 57 57" version="1.1">
<g id="surface1">
<path style=" stroke:none;fill-rule:nonzero;fill:rgb(0%,0%,0%);fill-opacity:1;" d="M 28.5 4.75 C 15.390625 4.75 4.75 15.390625 4.75 28.5 C 4.75 41.609375 15.390625 52.25 28.5 52.25 C 41.609375 52.25 52.25 41.609375 52.25 28.5 C 52.25 15.390625 41.609375 4.75 28.5 4.75 Z M 28.5 11.875 C 32.441406 11.875 35.625 15.058594 35.625 19 C 35.625 22.941406 32.441406 26.125 28.5 26.125 C 24.558594 26.125 21.375 22.941406 21.375 19 C 21.375 15.058594 24.558594 11.875 28.5 11.875 Z M 28.5 45.601562 C 22.5625 45.601562 17.3125 42.558594 14.25 37.953125 C 14.320312 33.226562 23.75 30.636719 28.5 30.636719 C 33.226562 30.636719 42.679688 33.226562 42.75 37.953125 C 39.6875 42.558594 34.4375 45.601562 28.5 45.601562 Z M 28.5 45.601562 "/>
</g>
</svg>
