<?xml version="1.0" encoding="UTF-8"?>
<svg xmlns="http://www.w3.org/2000/svg" xmlns:xlink="http://www.w3.org/1999/xlink" width="57pt" height="57pt" viewBox="0 0 57 57" version="1.1">
<g id="surface1">
<path style=" stroke:none;fill-rule:nonzero;fill:rgb(0%,0%,0%);fill-opacity:1;" d="M 7.125 11.875 L 7.125 45.125 C 7.125 47.738281 9.238281 49.875 11.875 49.875 L 45.125 49.875 C 47.738281 49.875 49.875 47.738281 49.875 45.125 L 49.875 11.875 C 49.875 9.261719 47.738281 7.125 45.125 7.125 L 11.875 7.125 C 9.238281 7.125 7.125 9.261719 7.125 11.875 Z M 35.625 21.375 C 35.625 25.316406 32.441406 28.5 28.5 28.5 C 24.558594 28.5 21.375 25.316406 21.375 21.375 C 21.375 17.433594 24.558594 14.25 28.5 14.25 C 32.441406 14.25 35.625 17.433594 35.625 21.375 Z M 14.25 40.375 C 14.25 35.625 23.75 33.011719 28.5 33.011719 C 33.25 33.011719 42.75 35.625 42.75 40.375 L 42.75 42.75 L 14.25 42.75 Z M 14.25 40.375 "/>
</g>
</svg>
