<?xml version="1.0" encoding="UTF-8"?>
<svg xmlns="http://www.w3.org/2000/svg" xmlns:xlink="http://www.w3.org/1999/xlink" width="57pt" height="57pt" viewBox="0 0 57 57" version="1.1">
<g id="surface1">
<path style=" stroke:none;fill-rule:nonzero;fill:rgb(0%,0%,0%);fill-opacity:1;" d="M 52.25 12.300781 L 25.152344 39.425781 L 15.082031 29.355469 L 18.429688 26.007812 L 25.152344 32.726562 L 48.902344 8.976562 Z M 28.5 47.5 C 18.027344 47.5 9.5 38.972656 9.5 28.5 C 9.5 18.027344 18.027344 9.5 28.5 9.5 C 32.230469 9.5 35.71875 10.59375 38.664062 12.46875 L 42.109375 9.023438 C 38.238281 6.339844 33.558594 4.75 28.5 4.75 C 15.390625 4.75 4.75 15.390625 4.75 28.5 C 4.75 41.609375 15.390625 52.25 28.5 52.25 C 32.609375 52.25 36.480469 51.203125 39.851562 49.351562 L 36.289062 45.789062 C 33.914062 46.882812 31.277344 47.5 28.5 47.5 Z M 45.125 35.625 L 38 35.625 L 38 40.375 L 45.125 40.375 L 45.125 47.5 L 49.875 47.5 L 49.875 40.375 L 57 40.375 L 57 35.625 L 49.875 35.625 L 49.875 28.5 L 45.125 28.5 Z M 45.125 35.625 "/>
</g>
</svg>
