<?xml version="1.0" encoding="UTF-8"?>
<svg xmlns="http://www.w3.org/2000/svg" xmlns:xlink="http://www.w3.org/1999/xlink" width="57pt" height="57pt" viewBox="0 0 57 57" version="1.1">
<g id="surface1">
<path style=" stroke:none;fill-rule:nonzero;fill:rgb(0%,0%,0%);fill-opacity:1;" d="M 40.375 26.125 L 40.375 7.125 L 16.625 7.125 L 16.625 16.625 L 7.125 16.625 L 7.125 49.875 L 26.125 49.875 L 26.125 40.375 L 30.875 40.375 L 30.875 49.875 L 49.875 49.875 L 49.875 26.125 Z M 16.625 45.125 L 11.875 45.125 L 11.875 40.375 L 16.625 40.375 Z M 16.625 35.625 L 11.875 35.625 L 11.875 30.875 L 16.625 30.875 Z M 16.625 26.125 L 11.875 26.125 L 11.875 21.375 L 16.625 21.375 Z M 26.125 35.625 L 21.375 35.625 L 21.375 30.875 L 26.125 30.875 Z M 26.125 26.125 L 21.375 26.125 L 21.375 21.375 L 26.125 21.375 Z M 26.125 16.625 L 21.375 16.625 L 21.375 11.875 L 26.125 11.875 Z M 35.625 35.625 L 30.875 35.625 L 30.875 30.875 L 35.625 30.875 Z M 35.625 26.125 L 30.875 26.125 L 30.875 21.375 L 35.625 21.375 Z M 35.625 16.625 L 30.875 16.625 L 30.875 11.875 L 35.625 11.875 Z M 45.125 45.125 L 40.375 45.125 L 40.375 40.375 L 45.125 40.375 Z M 45.125 35.625 L 40.375 35.625 L 40.375 30.875 L 45.125 30.875 Z M 45.125 35.625 "/>
</g>
</svg>
