<?xml version="1.0" encoding="UTF-8"?>
<svg xmlns="http://www.w3.org/2000/svg" xmlns:xlink="http://www.w3.org/1999/xlink" width="57pt" height="57pt" viewBox="0 0 57 57" version="1.1">
<g id="surface1">
<path style=" stroke:none;fill-rule:nonzero;fill:rgb(0%,0%,0%);fill-opacity:1;" d="M 45.125 7.125 L 35.199219 7.125 C 34.199219 4.371094 31.585938 2.375 28.5 2.375 C 25.414062 2.375 22.800781 4.371094 21.800781 7.125 L 11.875 7.125 C 9.261719 7.125 7.125 9.261719 7.125 11.875 L 7.125 45.125 C 7.125 47.738281 9.261719 49.875 11.875 49.875 L 45.125 49.875 C 47.738281 49.875 49.875 47.738281 49.875 45.125 L 49.875 11.875 C 49.875 9.261719 47.738281 7.125 45.125 7.125 Z M 28.5 7.125 C 29.804688 7.125 30.875 8.195312 30.875 9.5 C 30.875 10.804688 29.804688 11.875 28.5 11.875 C 27.195312 11.875 26.125 10.804688 26.125 9.5 C 26.125 8.195312 27.195312 7.125 28.5 7.125 Z M 33.25 40.375 L 16.625 40.375 L 16.625 35.625 L 33.25 35.625 Z M 40.375 30.875 L 16.625 30.875 L 16.625 26.125 L 40.375 26.125 Z M 40.375 21.375 L 16.625 21.375 L 16.625 16.625 L 40.375 16.625 Z M 40.375 21.375 "/>
</g>
</svg>
