<?xml version="1.0" encoding="UTF-8"?>
<svg xmlns="http://www.w3.org/2000/svg" xmlns:xlink="http://www.w3.org/1999/xlink" width="57pt" height="57pt" viewBox="0 0 57 57" version="1.1">
<g id="surface1">
<path style=" stroke:none;fill-rule:nonzero;fill:rgb(0%,0%,0%);fill-opacity:1;" d="M 49.875 19 L 49.875 16.625 L 42.75 21.375 L 35.625 16.625 L 35.625 19 L 42.75 23.75 Z M 52.25 7.125 L 4.75 7.125 C 2.136719 7.125 0 9.261719 0 11.875 L 0 45.125 C 0 47.738281 2.136719 49.875 4.75 49.875 L 52.25 49.875 C 54.863281 49.875 56.976562 47.738281 56.976562 45.125 L 57 11.875 C 57 9.261719 54.863281 7.125 52.25 7.125 Z M 19 14.25 C 22.941406 14.25 26.125 17.433594 26.125 21.375 C 26.125 25.316406 22.941406 28.5 19 28.5 C 15.058594 28.5 11.875 25.316406 11.875 21.375 C 11.875 17.433594 15.058594 14.25 19 14.25 Z M 33.25 42.75 L 4.75 42.75 L 4.75 40.375 C 4.75 35.625 14.25 33.011719 19 33.011719 C 23.75 33.011719 33.25 35.625 33.25 40.375 Z M 52.25 28.5 L 33.25 28.5 L 33.25 14.25 L 52.25 14.25 Z M 52.25 28.5 "/>
</g>
</svg>
