<?xml version="1.0" encoding="UTF-8"?>
<svg xmlns="http://www.w3.org/2000/svg" xmlns:xlink="http://www.w3.org/1999/xlink" width="57pt" height="57pt" viewBox="0 0 57 57" version="1.1">
<g id="surface1">
<path style=" stroke:none;fill-rule:nonzero;fill:rgb(0%,0%,0%);fill-opacity:1;" d="M 39.039062 40.867188 L 31.316406 40.867188 L 31.316406 33.144531 C 31.316406 33.0625 31.300781 32.984375 31.292969 32.90625 C 39.109375 31.574219 45.078125 24.757812 45.078125 16.570312 C 45.078125 7.433594 37.648438 0 28.507812 0 C 19.371094 0 11.9375 7.433594 11.9375 16.570312 C 11.9375 24.757812 17.910156 31.574219 25.722656 32.90625 C 25.714844 32.984375 25.699219 33.0625 25.699219 33.144531 L 25.699219 40.867188 L 17.976562 40.867188 C 16.425781 40.867188 15.167969 42.125 15.167969 43.675781 C 15.167969 45.226562 16.425781 46.484375 17.976562 46.484375 L 25.699219 46.484375 L 25.699219 54.207031 C 25.699219 55.757812 26.957031 57.015625 28.507812 57.015625 C 30.058594 57.015625 31.316406 55.757812 31.316406 54.207031 L 31.316406 46.484375 L 39.039062 46.484375 C 40.59375 46.484375 41.851562 45.226562 41.851562 43.675781 C 41.851562 42.125 40.59375 40.867188 39.039062 40.867188 Z M 17.554688 16.570312 C 17.554688 10.53125 22.46875 5.617188 28.507812 5.617188 C 34.550781 5.617188 39.464844 10.53125 39.464844 16.570312 C 39.464844 22.613281 34.550781 27.527344 28.507812 27.527344 C 22.46875 27.527344 17.554688 22.613281 17.554688 16.570312 Z M 17.554688 16.570312 "/>
</g>
</svg>
