<?xml version="1.0" encoding="UTF-8"?>
<svg xmlns="http://www.w3.org/2000/svg" xmlns:xlink="http://www.w3.org/1999/xlink" width="57pt" height="57pt" viewBox="0 0 57 57" version="1.1">
<g id="surface1">
<path style=" stroke:none;fill-rule:evenodd;fill:rgb(0%,0%,0%);fill-opacity:1;" d="M 21.375 40.375 L 28.5 33.390625 C 27.574219 33.296875 26.886719 33.25 26.125 33.25 C 19.785156 33.25 7.125 36.433594 7.125 42.75 L 7.125 47.5 L 28.5 47.5 Z M 26.125 28.5 C 31.375 28.5 35.625 24.25 35.625 19 C 35.625 13.75 31.375 9.5 26.125 9.5 C 20.875 9.5 16.625 13.75 16.625 19 C 16.625 24.25 20.875 28.5 26.125 28.5 "/>
<path style=" stroke:none;fill-rule:evenodd;fill:rgb(0%,0%,0%);fill-opacity:1;" d="M 36.742188 48.6875 L 28.5 40.375 L 31.824219 37.027344 L 36.742188 41.964844 L 48.925781 29.6875 L 52.25 33.035156 Z M 36.742188 48.6875 "/>
</g>
</svg>
