<?xml version="1.0" encoding="UTF-8"?>
<svg xmlns="http://www.w3.org/2000/svg" xmlns:xlink="http://www.w3.org/1999/xlink" width="57pt" height="57pt" viewBox="0 0 57 57" version="1.1">
<g id="surface1">
<path style=" stroke:none;fill-rule:nonzero;fill:rgb(0%,0%,0%);fill-opacity:1;" d="M 49.875 7.148438 L 7.125 7.148438 C 4.511719 7.148438 2.375 9.285156 2.375 11.898438 L 2.375 21.375 L 7.125 21.375 L 7.125 11.851562 L 49.875 11.851562 L 49.875 45.171875 L 7.125 45.171875 L 7.125 35.625 L 2.375 35.625 L 2.375 45.148438 C 2.375 47.761719 4.511719 49.851562 7.125 49.851562 L 49.875 49.851562 C 52.488281 49.851562 54.625 47.761719 54.625 45.148438 L 54.625 11.898438 C 54.625 9.261719 52.488281 7.148438 49.875 7.148438 Z M 26.125 38 L 35.625 28.5 L 26.125 19 L 26.125 26.125 L 2.375 26.125 L 2.375 30.875 L 26.125 30.875 Z M 26.125 38 "/>
</g>
</svg>
