<?xml version="1.0" encoding="UTF-8"?>
<svg xmlns="http://www.w3.org/2000/svg" xmlns:xlink="http://www.w3.org/1999/xlink" width="57pt" height="57pt" viewBox="0 0 57 57" version="1.1">
<g id="surface1">
<path style=" stroke:none;fill-rule:nonzero;fill:rgb(0%,0%,0%);fill-opacity:1;" d="M 36.8125 33.25 L 34.9375 33.25 L 34.269531 32.609375 C 36.597656 29.902344 38 26.386719 38 22.5625 C 38 14.035156 31.089844 7.125 22.5625 7.125 C 14.035156 7.125 7.125 14.035156 7.125 22.5625 C 7.125 31.089844 14.035156 38 22.5625 38 C 26.386719 38 29.902344 36.597656 32.609375 34.269531 L 33.25 34.9375 L 33.25 36.8125 L 45.125 48.664062 L 48.664062 45.125 Z M 22.5625 33.25 C 16.648438 33.25 11.875 28.476562 11.875 22.5625 C 11.875 16.648438 16.648438 11.875 22.5625 11.875 C 28.476562 11.875 33.25 16.648438 33.25 22.5625 C 33.25 28.476562 28.476562 33.25 22.5625 33.25 Z M 22.5625 33.25 "/>
</g>
</svg>
