<?xml version="1.0" encoding="UTF-8"?>
<svg xmlns="http://www.w3.org/2000/svg" xmlns:xlink="http://www.w3.org/1999/xlink" width="57pt" height="57pt" viewBox="0 0 57 57" version="1.1">
<g id="surface1">
<path style=" stroke:none;fill-rule:nonzero;fill:rgb(0%,0%,0%);fill-opacity:1;" d="M 45.457031 30.734375 C 45.550781 30.019531 45.601562 29.285156 45.601562 28.5 C 45.601562 27.738281 45.550781 26.980469 45.433594 26.265625 L 50.253906 22.515625 C 50.683594 22.183594 50.800781 21.542969 50.539062 21.066406 L 45.980469 13.179688 C 45.695312 12.660156 45.101562 12.492188 44.578125 12.660156 L 38.902344 14.9375 C 37.714844 14.035156 36.457031 13.277344 35.054688 12.707031 L 34.199219 6.671875 C 34.105469 6.105469 33.628906 5.699219 33.058594 5.699219 L 23.941406 5.699219 C 23.371094 5.699219 22.917969 6.105469 22.824219 6.671875 L 21.96875 12.707031 C 20.566406 13.277344 19.285156 14.058594 18.121094 14.9375 L 12.445312 12.660156 C 11.921875 12.46875 11.328125 12.660156 11.042969 13.179688 L 6.507812 21.066406 C 6.222656 21.566406 6.316406 22.183594 6.792969 22.515625 L 11.613281 26.265625 C 11.496094 26.980469 11.398438 27.765625 11.398438 28.5 C 11.398438 29.234375 11.449219 30.019531 11.566406 30.734375 L 6.746094 34.484375 C 6.316406 34.816406 6.199219 35.457031 6.460938 35.933594 L 11.019531 43.820312 C 11.304688 44.339844 11.898438 44.507812 12.421875 44.339844 L 18.097656 42.0625 C 19.285156 42.964844 20.542969 43.722656 21.945312 44.292969 L 22.800781 50.328125 C 22.917969 50.894531 23.371094 51.300781 23.941406 51.300781 L 33.058594 51.300781 C 33.628906 51.300781 34.105469 50.894531 34.175781 50.328125 L 35.03125 44.292969 C 36.433594 43.722656 37.714844 42.964844 38.878906 42.0625 L 44.554688 44.339844 C 45.078125 44.53125 45.671875 44.339844 45.957031 43.820312 L 50.515625 35.933594 C 50.800781 35.410156 50.683594 34.816406 50.230469 34.484375 Z M 28.5 37.050781 C 23.796875 37.050781 19.949219 33.203125 19.949219 28.5 C 19.949219 23.796875 23.796875 19.949219 28.5 19.949219 C 33.203125 19.949219 37.050781 23.796875 37.050781 28.5 C 37.050781 33.203125 33.203125 37.050781 28.5 37.050781 Z M 28.5 37.050781 "/>
</g>
</svg>
