<?xml version="1.0" encoding="UTF-8"?>
<svg xmlns="http://www.w3.org/2000/svg" xmlns:xlink="http://www.w3.org/1999/xlink" width="57pt" height="57pt" viewBox="0 0 57 57" version="1.1">
<g id="surface1">
<path style=" stroke:none;fill-rule:nonzero;fill:rgb(0%,0%,0%);fill-opacity:1;" d="M 40.875 21.375 L 30.472656 5.796875 C 30.019531 5.128906 29.261719 4.796875 28.5 4.796875 C 27.738281 4.796875 26.980469 5.128906 26.527344 5.820312 L 16.125 21.375 L 4.75 21.375 C 3.445312 21.375 2.375 22.445312 2.375 23.75 C 2.375 23.964844 2.398438 24.175781 2.46875 24.390625 L 8.503906 46.40625 C 9.046875 48.402344 10.878906 49.875 13.0625 49.875 L 43.9375 49.875 C 46.121094 49.875 47.953125 48.402344 48.519531 46.40625 L 54.554688 24.390625 L 54.625 23.75 C 54.625 22.445312 53.554688 21.375 52.25 21.375 Z M 21.375 21.375 L 28.5 10.925781 L 35.625 21.375 Z M 28.5 40.375 C 25.886719 40.375 23.75 38.238281 23.75 35.625 C 23.75 33.011719 25.886719 30.875 28.5 30.875 C 31.113281 30.875 33.25 33.011719 33.25 35.625 C 33.25 38.238281 31.113281 40.375 28.5 40.375 Z M 28.5 40.375 "/>
</g>
</svg>
